<svg xmlns="http://www.w3.org/2000/svg" width="1080" height="1350" viewBox="0 0 1080 1350" role="img" aria-label="Launch card for AI companion">
  <defs>
    <linearGradient id="bg" x1="0" y1="0" x2="1" y2="1">
      <stop offset="0" stop-color="#08111d"/>
      <stop offset="0.48" stop-color="#102f35"/>
      <stop offset="1" stop-color="#2a1f13"/>
    </linearGradient>
    <radialGradient id="pulse" cx="50%" cy="34%" r="58%">
      <stop offset="0" stop-color="#85df96" stop-opacity="0.64"/>
      <stop offset="0.48" stop-color="#59c9a8" stop-opacity="0.16"/>
      <stop offset="1" stop-color="#08111d" stop-opacity="0"/>
    </radialGradient>
    <filter id="softShadow" x="-20%" y="-20%" width="140%" height="140%">
      <feDropShadow dx="0" dy="24" stdDeviation="28" flood-color="#000000" flood-opacity="0.38"/>
    </filter>
  </defs>
  <rect width="1080" height="1350" fill="url(#bg)"/>
  <rect width="1080" height="1350" fill="url(#pulse)"/>
  <circle cx="915" cy="162" r="210" fill="#f7c971" opacity="0.11"/>
  <circle cx="146" cy="1118" r="280" fill="#59c9a8" opacity="0.12"/>
  <path d="M130 244C226 134 347 88 493 106c181 22 263 146 419 119" fill="none" stroke="#85df96" stroke-width="2" opacity="0.4"/>
  <path d="M136 1115c118-78 237-94 357-48 166 64 272 8 407-79" fill="none" stroke="#f7c971" stroke-width="2" opacity="0.32"/>
  <g filter="url(#softShadow)">
    <rect x="105" y="178" width="870" height="994" rx="58" fill="#0d1827" opacity="0.88" stroke="#ffffff" stroke-opacity="0.12"/>
    <rect x="147" y="220" width="786" height="910" rx="42" fill="#101f31" stroke="#ffffff" stroke-opacity="0.08"/>
  </g>
  <text x="170" y="310" fill="#f7c971" font-family="Georgia, serif" font-size="32" letter-spacing="8">AI COMPANION</text>
  <text x="170" y="420" fill="#f4f7fb" font-family="Georgia, serif" font-size="76" font-weight="700">Не просто</text>
  <text x="170" y="508" fill="#f4f7fb" font-family="Georgia, serif" font-size="76" font-weight="700">ответ.</text>
  <text x="170" y="596" fill="#85df96" font-family="Georgia, serif" font-size="76" font-weight="700">Продолжение</text>
  <text x="170" y="684" fill="#85df96" font-family="Georgia, serif" font-size="76" font-weight="700">мысли.</text>
  <g transform="translate(170 770)">
    <rect width="740" height="96" rx="28" fill="#ffffff" opacity="0.06" stroke="#ffffff" stroke-opacity="0.12"/>
    <text x="34" y="39" fill="#9bb0c8" font-family="Verdana, sans-serif" font-size="25">Память контекста • длинные задачи • живой диалог</text>
    <text x="34" y="72" fill="#f4f7fb" font-family="Verdana, sans-serif" font-size="25">Начни бесплатно, продолжи глубже дневным доступом</text>
  </g>
  <g transform="translate(170 920)">
    <circle cx="44" cy="44" r="44" fill="#85df96"/>
    <text x="29" y="58" fill="#08111d" font-family="Verdana, sans-serif" font-size="42" font-weight="700">1</text>
    <text x="112" y="38" fill="#f4f7fb" font-family="Verdana, sans-serif" font-size="28" font-weight="700">Пришли хаос, текст или вопрос</text>
    <text x="112" y="76" fill="#9bb0c8" font-family="Verdana, sans-serif" font-size="24">Бот даст полезную часть и не потеряет нить.</text>
  </g>
  <g transform="translate(170 1040)">
    <circle cx="44" cy="44" r="44" fill="#f7c971"/>
    <text x="29" y="58" fill="#08111d" font-family="Verdana, sans-serif" font-size="42" font-weight="700">2</text>
    <text x="112" y="38" fill="#f4f7fb" font-family="Verdana, sans-serif" font-size="28" font-weight="700">Если задача большая, открой день</text>
    <text x="112" y="76" fill="#9bb0c8" font-family="Verdana, sans-serif" font-size="24">Без обрыва ответа и с большим контекстом.</text>
  </g>
  <text x="170" y="1242" fill="#9bb0c8" font-family="Verdana, sans-serif" font-size="26">Ссылка в профиле или Telegram deep link</text>
</svg>
