<svg xmlns="http://www.w3.org/2000/svg" width="1080" height="1350" viewBox="0 0 1080 1350" role="img" aria-label="Nit launch card">
  <defs>
    <linearGradient id="bg" x1="0" y1="0" x2="1" y2="1">
      <stop offset="0" stop-color="#09131e"/>
      <stop offset="0.52" stop-color="#112734"/>
      <stop offset="1" stop-color="#1b1510"/>
    </linearGradient>
    <radialGradient id="glow" cx="50%" cy="22%" r="62%">
      <stop offset="0" stop-color="#8BE7A0" stop-opacity="0.62"/>
      <stop offset="0.44" stop-color="#4FC7AE" stop-opacity="0.16"/>
      <stop offset="1" stop-color="#09131e" stop-opacity="0"/>
    </radialGradient>
    <filter id="shadow" x="-20%" y="-20%" width="140%" height="140%">
      <feDropShadow dx="0" dy="24" stdDeviation="28" flood-color="#000000" flood-opacity="0.34"/>
    </filter>
  </defs>

  <rect width="1080" height="1350" fill="url(#bg)"/>
  <rect width="1080" height="1350" fill="url(#glow)"/>
  <circle cx="920" cy="148" r="210" fill="#F7C971" opacity="0.11"/>
  <circle cx="132" cy="1140" r="290" fill="#59C9A8" opacity="0.10"/>
  <path d="M124 232C224 122 348 84 500 106c176 26 264 150 416 120" fill="none" stroke="#8BE7A0" stroke-width="2" opacity="0.32"/>
  <path d="M146 1112c126-74 240-92 358-48 156 58 262 12 402-76" fill="none" stroke="#F7C971" stroke-width="2" opacity="0.28"/>

  <g filter="url(#shadow)">
    <rect x="104" y="170" width="872" height="1002" rx="56" fill="#0D1827" opacity="0.9" stroke="#FFFFFF" stroke-opacity="0.11"/>
    <rect x="146" y="212" width="788" height="918" rx="40" fill="#101F31" stroke="#FFFFFF" stroke-opacity="0.08"/>
  </g>

  <text x="170" y="304" fill="#F7C971" font-family="Inter, Arial, sans-serif" font-size="28" font-weight="700" letter-spacing="6">NIT AI COMPANION</text>
  <text x="170" y="412" fill="#F4F7FB" font-family="Inter, Arial, sans-serif" font-size="88" font-weight="700">Нить</text>
  <text x="170" y="500" fill="#F4F7FB" font-family="Inter, Arial, sans-serif" font-size="70" font-weight="700">не обрывает</text>
  <text x="170" y="584" fill="#8BE7A0" font-family="Inter, Arial, sans-serif" font-size="70" font-weight="700">разговор</text>

  <text x="170" y="668" fill="#A8B7CB" font-family="Inter, Arial, sans-serif" font-size="30">
    Память контекста, живой диалог, поддержка, разбор и фокус.
  </text>

  <g transform="translate(170 756)">
    <rect width="740" height="108" rx="26" fill="#FFFFFF" opacity="0.06" stroke="#FFFFFF" stroke-opacity="0.12"/>
    <text x="34" y="43" fill="#F4F7FB" font-family="Inter, Arial, sans-serif" font-size="26" font-weight="600">
      Пиши как есть: тревога, хаос, рабочая задача или решение.
    </text>
    <text x="34" y="79" fill="#A8B7CB" font-family="Inter, Arial, sans-serif" font-size="24">
      Нить отвечает по-человечески и держит нить мысли дальше.
    </text>
  </g>

  <g transform="translate(170 914)">
    <circle cx="44" cy="44" r="44" fill="#8BE7A0"/>
    <text x="28" y="58" fill="#09131E" font-family="Inter, Arial, sans-serif" font-size="42" font-weight="700">1</text>
    <text x="112" y="38" fill="#F4F7FB" font-family="Inter, Arial, sans-serif" font-size="28" font-weight="700">Начни с одной фразы</text>
    <text x="112" y="76" fill="#A8B7CB" font-family="Inter, Arial, sans-serif" font-size="24">Без анкеты, без шаблона, без чувства, что говоришь со стеной.</text>
  </g>

  <g transform="translate(170 1036)">
    <circle cx="44" cy="44" r="44" fill="#F7C971"/>
    <text x="28" y="58" fill="#09131E" font-family="Inter, Arial, sans-serif" font-size="42" font-weight="700">2</text>
    <text x="112" y="38" fill="#F4F7FB" font-family="Inter, Arial, sans-serif" font-size="28" font-weight="700">Если нужно глубже — открой платный доступ</text>
    <text x="112" y="76" fill="#A8B7CB" font-family="Inter, Arial, sans-serif" font-size="24">Больше контекста, длиннее ответы, инициатива после паузы.</text>
  </g>

  <text x="170" y="1242" fill="#A8B7CB" font-family="Inter, Arial, sans-serif" font-size="26">Telegram bot · Нить</text>
</svg>
